HIERARCHY
ROOT Hips
{
  OFFSET 4.76165 87.3453 3.2306
  CHANNELS 6 Xposition Yposition Zposition Zrotation Xrotation Yrotation
  JOINT RightUpLeg
  {
    OFFSET -7.72383 0.0108302 -0.00120336
    CHANNELS 6 Xposition Yposition Zposition Zrotation Xrotation Yrotation
    JOINT RightLeg
    {
      OFFSET 0 -40.1762 -0.000943702
      CHANNELS 6 Xposition Yposition Zposition Zrotation Xrotation Yrotation
      JOINT RightFoot
      {
        OFFSET 0 -39.1561 -0.0015901
        CHANNELS 6 Xposition Yposition Zposition Zrotation Xrotation Yrotation
        JOINT RightToeBase
        {
          OFFSET 0 -6.58174 14.9377
          CHANNELS 6 Xposition Yposition Zposition Zrotation Xrotation Yrotation
          End Site
          {
            OFFSET 0 0 0
          }
        }
      }
    }
  }
  JOINT LeftUpLeg
  {
    OFFSET 7.72383 0.00871423 -0.000968248
    CHANNELS 6 Xposition Yposition Zposition Zrotation Xrotation Yrotation
    JOINT LeftLeg
    {
      OFFSET 0 -40.1762 -0.000943702
      CHANNELS 6 Xposition Yposition Zposition Zrotation Xrotation Yrotation
      JOINT LeftFoot
      {
        OFFSET 0 -39.1561 -0.0015901
        CHANNELS 6 Xposition Yposition Zposition Zrotation Xrotation Yrotation
        JOINT LeftToeBase
        {
          OFFSET 0 -6.58174 14.9377
          CHANNELS 6 Xposition Yposition Zposition Zrotation Xrotation Yrotation
          End Site
          {
            OFFSET 0 0 0
          }
        }
      }
    }
  }
  JOINT Spine
  {
    OFFSET 0 9.37468 -1.04163
    CHANNELS 6 Xposition Yposition Zposition Zrotation Xrotation Yrotation
    JOINT Spine1
    {
      OFFSET 0 10.3585 0
      CHANNELS 6 Xposition Yposition Zposition Zrotation Xrotation Yrotation
      JOINT Spine2
      {
        OFFSET 0 9.45755 -0.00399248
        CHANNELS 6 Xposition Yposition Zposition Zrotation Xrotation Yrotation
        JOINT Spine3
        {
          OFFSET 0 9.44699 -0.00399652
          CHANNELS 6 Xposition Yposition Zposition Zrotation Xrotation Yrotation
          JOINT LeftShoulder
          {
            OFFSET 2.88957 7.42581 0
            CHANNELS 6 Xposition Yposition Zposition Zrotation Xrotation Yrotation
            JOINT LeftArm
            {
              OFFSET 13.5541 0 0
              CHANNELS 6 Xposition Yposition Zposition Zrotation Xrotation Yrotation
              JOINT LeftForeArm
              {
                OFFSET 29.0859 0 0
                CHANNELS 6 Xposition Yposition Zposition Zrotation Xrotation Yrotation
                JOINT LeftHand
                {
                  OFFSET 23.7669 0 0
                  CHANNELS 6 Xposition Yposition Zposition Zrotation Xrotation Yrotation
                  End Site
                  {
                    OFFSET 0 0 0
                  }
                }
              }
            }
          }
          JOINT RightShoulder
          {
            OFFSET -2.88957 7.42581 0
            CHANNELS 6 Xposition Yposition Zposition Zrotation Xrotation Yrotation
            JOINT RightArm
            {
              OFFSET -13.5541 0 0
              CHANNELS 6 Xposition Yposition Zposition Zrotation Xrotation Yrotation
              JOINT RightForeArm
              {
                OFFSET -29.0859 0 0
                CHANNELS 6 Xposition Yposition Zposition Zrotation Xrotation Yrotation
                JOINT RightHand
                {
                  OFFSET -23.7669 0 0
                  CHANNELS 6 Xposition Yposition Zposition Zrotation Xrotation Yrotation
                  End Site
                  {
                    OFFSET 0 0 0
                  }
                }
              }
            }
          }
          JOINT Neck
          {
            OFFSET 0 13.2431 0
            CHANNELS 6 Xposition Yposition Zposition Zrotation Xrotation Yrotation
            JOINT Head
            {
              OFFSET 0 8.7961 0.0085863
              CHANNELS 6 Xposition Yposition Zposition Zrotation Xrotation Yrotation
              End Site
              {
                OFFSET 0 0 0
              }
            }
          }
        }
      }
    }
  }
}
MOTION
Frames:	4
Frame Time:	0.02
4.76165 87.3453 3.2306 -0.468646 2.83548 6.4697 -7.72383 0.0108302 -0.00120336 0.293944 -2.51829 -2.22074 4.44089e-16 -40.1762 -0.000943702 -0.651263 2.84554 6.66105 -4.44089e-16 -39.1561 -0.0015901 0.00558215 -3.17558 -6.15587 -8.88178e-16 -6.58174 14.9377 7.92026e-17 6.21202e-18 0.00645655 7.72383 0.00871423 -0.000968248 -1.25039 -1.41861 -1.29544 -1.77636e-15 -40.1762 -0.000943702 0.351454 2.71517 -3.92606 0 -39.1561 -0.0015901 -1.50635 -5.02218 0.470565 3.55271e-15 -6.58174 14.9377 8.69726e-17 -1.98785e-16 0.00124535 8.88178e-16 9.37468 -1.04163 -0.583632 -1.98854 0.0960084 0 10.3585 0 -0.255619 -6.71365 0.0454815 8.88178e-16 9.45755 -0.00399248 -0.253817 -0.893279 0.0713492 4.44089e-16 9.44699 -0.00399652 -0.195617 5.1734 0.0466127 2.88957 7.42581 0 -12.2739 2.25527 -0.433725 13.5541 0 1.11022e-16 -69.773 -8.37731 -5.58901 29.0859 7.10543e-15 3.55271e-15 1.15827 -21.0846 3.90683 23.7669 0 0 -1.33636 -0.877951 7.26644 -2.88957 7.42581 -1.77636e-15 11.7606 1.22318 -0.834954 -13.5541 -2.84217e-14 2.22045e-16 73.3712 -10.4368 6.02824 -29.0859 0 -3.55271e-15 -3.49525 3.99881 -7.96003 -23.7669 -1.42109e-14 0 4.95261 -1.69412 3.07962 4.44089e-16 13.2431 -8.88178e-16 1.18943 14.1258 0.0778127 0 8.7961 0.0085863 2.27464 -9.78435 0.656633 
4.76165 87.3453 3.21808 -0.46912 2.8291 6.49363 -7.72383 0.0108302 -0.00120336 0.279454 -2.51833 -2.19944 0 -40.1762 -0.000943702 -0.651813 2.83416 6.69851 4.44089e-16 -39.1561 -0.0015901 0.143577 -3.07857 -6.2714 -1.33227e-15 -6.58174 14.9377 -0.0433645 -0.091099 0.00645656 7.72383 0.00871423 -0.000968248 -1.25039 -1.41861 -1.29544 0 -40.1762 -0.000943702 0.334371 2.71512 -3.94139 -1.77636e-15 -39.1561 -0.0015901 -1.51605 -4.9796 0.470535 3.55271e-15 -6.58174 14.9377 -7.64092e-16 5.96354e-16 0.00124535 0 9.37468 -1.04163 -0.58403 -1.98854 0.0845505 -1.33227e-15 10.3585 4.44089e-16 -0.256215 -6.71365 0.0403759 0 9.45755 -0.00399248 -0.253893 -0.893279 0.066508 4.44089e-16 9.44699 -0.00399652 -0.195617 5.1734 0.0466127 2.88957 7.42581 -8.88178e-16 -12.2667 2.25115 -0.433724 13.5541 -2.84217e-14 5.55112e-16 -69.7886 -8.37766 -5.56404 29.0859 7.10543e-15 0 1.16328 -21.0435 3.88372 23.7669 3.55271e-15 3.55271e-15 -1.34162 -0.873799 7.25791 -2.88957 7.42581 -1.77636e-15 11.7699 1.22318 -0.844929 -13.5541 0 2.22045e-16 73.382 -10.4605 5.99752 -29.0859 3.55271e-15 0 -3.49971 4.05171 -7.9371 -23.7669 0 -4.44089e-16 4.95286 -1.69411 3.08809 -4.44089e-16 13.2431 0 1.18944 14.1206 0.0778109 8.88178e-16 8.7961 0.0085863 2.27334 -9.79405 0.648348 
4.76165 87.3453 3.20525 -0.469907 2.8237 6.52171 -7.72383 0.0108302 -0.00120336 0.265338 -2.52252 -2.17378 0 -40.1762 -0.000943702 -0.650866 2.82477 6.72777 0 -39.1561 -0.0015901 0.274226 -3.00667 -6.38246 -8.88178e-16 -6.58174 14.9377 -0.101608 -0.194723 0.00645659 7.72383 0.00871423 -0.000968248 -1.25044 -1.42397 -1.29269 0 -40.1762 -0.000943702 0.323144 2.71506 -3.96052 1.77636e-15 -39.1561 -0.0015901 -1.52757 -4.93788 0.470505 3.55271e-15 -6.58174 14.9377 -1.18037e-16 3.97569e-16 0.00124535 -8.88178e-16 9.37468 -1.04163 -0.584469 -1.98854 0.0718991 -4.44089e-16 10.3585 0 -0.256875 -6.71365 0.034731 4.44089e-16 9.45755 -0.00399248 -0.253977 -0.893279 0.061086 0 9.44699 -0.00399652 -0.195617 5.1734 0.0466127 2.88957 7.42581 -8.88178e-16 -12.2604 2.24454 -0.433722 13.5541 0 -2.22045e-16 -69.8029 -8.37263 -5.53981 29.0859 7.10543e-15 3.55271e-15 1.16609 -21.0064 3.85922 23.7669 0 3.55271e-15 -1.34902 -0.865057 7.24635 -2.88957 7.42581 -8.88178e-16 11.7788 1.22318 -0.855322 -13.5541 2.84217e-14 2.22045e-16 73.3911 -10.482 5.97236 -29.0859 3.55271e-15 -3.55271e-15 -3.50365 4.10506 -7.9166 -23.7669 -7.10543e-15 8.88178e-16 4.95312 -1.69409 3.09677 4.44089e-16 13.2431 0 1.18945 14.1135 0.0778085 0 8.7961 0.0085863 2.2719 -9.80739 0.638992 
4.76165 87.3453 3.19024 -0.469579 2.81854 6.54893 -7.72383 0.0108302 -0.00120336 0.247422 -2.53173 -2.15269 -4.44089e-16 -40.1762 -0.000943702 -0.642008 2.82655 6.76019 -4.44089e-16 -39.1561 -0.0015901 0.385139 -2.96172 -6.48542 0 -6.58174 14.9377 -0.173567 -0.257804 0.00645662 7.72383 0.00871423 -0.000968248 -1.25426 -1.43353 -1.27498 0 -40.1762 -0.000943702 0.328183 2.71688 -3.98851 1.77636e-15 -39.1561 -0.0015901 -1.54287 -4.89777 0.463342 0 -6.58174 14.9377 -5.52883e-16 5.96354e-16 0.00124535 0 9.37468 -1.04163 -0.584836 -1.98854 0.0613093 -8.88178e-16 10.3585 4.44089e-16 -0.257429 -6.71365 0.0299956 8.88178e-16 9.45755 -0.00399248 -0.25405 -0.893279 0.0564406 8.88178e-16 9.44699 -0.00399652 -0.195282 5.1734 0.0428972 2.88957 7.42581 0 -12.2558 2.23615 -0.425999 13.5541 2.84217e-14 1.66533e-16 -69.8191 -8.34464 -5.52321 29.0859 7.10543e-15 -3.55271e-15 1.16397 -21.0162 3.84459 23.7669 0 -3.55271e-15 -1.35627 -0.858069 7.23789 -2.88957 7.42581 0 11.7866 1.22317 -0.867041 -13.5541 0 0 73.3962 -10.4864 5.9488 -29.0859 7.10543e-15 0 -3.50909 4.10818 -7.89963 -23.7669 -7.10543e-15 8.88178e-16 4.95341 -1.69408 3.10662 -4.44089e-16 13.2431 8.88178e-16 1.18946 14.1065 0.0778061 0 8.7961 0.0085863 2.27085 -9.82049 0.631981 
